# xmcd
# 
# Track frame offsets:
#     150
#     16884
#     40354
#     61412
#     88791
#     105688
#     133631
#     167139
#     199027
#     222151
#     250105
#     265700
# 
# Disc length: 3869
# 
# Revision: 1
# Processed by: cddbd v1.5.2PL0 Copyright (c) Steve Scherf et al.
# Submitted via: fre:ac v1.0.17
# 
DISCID=a40f1b0c
DTITLE=Walter Strerath Trio - Fly To Brazil
DYEAR=1975
DGENRE=Jazz
TTITLE0=Fly To Brazil
TTITLE1=Con Alma
TTITLE2=Bossa Made In Germany
TTITLE3=Bara-Bossa
TTITLE4=On 4 Goes It Loose Blues
TTITLE5=Softly As In A Morning Sunrise
TTITLE6=Autumn Leaves
TTITLE7=A Slow Fly
TTITLE8=Fly To Brazil (Alternate Take)
TTITLE9=A Slow Fly (Alternate Take)
TTITLE10=Bossa Made In Germany (Alternate Take)
TTITLE11=Bara-Bossa (Alternate Take)
EXTD=YEAR: 1975
EXTT0=
EXTT1=
EXTT2=
EXTT3=
EXTT4=
EXTT5=
EXTT6=
EXTT7=
EXTT8=
EXTT9=
EXTT10=
EXTT11=
PLAYORDER=
